<?xml version="1.0" encoding="UTF-8" standalone="no"?>
<!-- Created with Inkscape (http://www.inkscape.org/) -->

<svg
   xmlns:dc="http://purl.org/dc/elements/1.1/"
   xmlns:cc="http://creativecommons.org/ns#"
   xmlns:rdf="http://www.w3.org/1999/02/22-rdf-syntax-ns#"
   xmlns:svg="http://www.w3.org/2000/svg"
   xmlns="http://www.w3.org/2000/svg"
   xmlns:sodipodi="http://sodipodi.sourceforge.net/DTD/sodipodi-0.dtd"
   xmlns:inkscape="http://www.inkscape.org/namespaces/inkscape"
   width="73mm"
   height="25mm"
   viewBox="0 0 73 25"
   version="1.1"
   id="svg8"
   inkscape:version="0.92.4 (5da689c313, 2019-01-14)"
   sodipodi:docname="mtu-logo.svg">
  <defs
     id="defs2" />
  <sodipodi:namedview
     id="base"
     pagecolor="#ffffff"
     bordercolor="#666666"
     borderopacity="1.0"
     inkscape:pageopacity="0.0"
     inkscape:pageshadow="2"
     inkscape:zoom="4.0274914"
     inkscape:cx="128.5"
     inkscape:cy="43.068259"
     inkscape:document-units="mm"
     inkscape:current-layer="layer1"
     showgrid="false"
     inkscape:window-width="1366"
     inkscape:window-height="702"
     inkscape:window-x="0"
     inkscape:window-y="0"
     inkscape:window-maximized="1"
     showguides="true"
     inkscape:guide-bbox="true" />
  <metadata
     id="metadata5">
    <rdf:RDF>
      <cc:Work
         rdf:about="">
        <dc:format>image/svg+xml</dc:format>
        <dc:type
           rdf:resource="http://purl.org/dc/dcmitype/StillImage" />
        <dc:title></dc:title>
      </cc:Work>
    </rdf:RDF>
  </metadata>
  <g
     inkscape:label="Camada 1"
     inkscape:groupmode="layer"
     id="layer1"
     transform="translate(0,-272)">
    <g
       id="g1015"
       inkscape:export-xdpi="96"
       inkscape:export-ydpi="96"
       transform="translate(264.19379,202.06974)">
      <g
         transform="translate(-1.7897049,-0.44807475)"
         id="g987">
        <g
           id="g4813"
           style="fill:#ff0000;fill-opacity:1"
           transform="translate(-5.5835004,21.093224)">
          <path
             sodipodi:nodetypes="cccccccccccccc"
             inkscape:connector-curvature="0"
             id="path4758"
             d="m -237.34703,59.430747 0.93186,-0.03313 v -2.17267 l 0.53222,2.17267 h 0.8952 l 0.56564,-2.17267 1e-5,2.17267 h 0.86852 v -3.75295 h -1.2062 l -0.66186,2.444217 -0.6857,-2.444217 h -1.23969 z"
             style="fill:#ff0000;fill-opacity:1;stroke:none;stroke-width:0.0055;stroke-linecap:butt;stroke-linejoin:miter;stroke-miterlimit:4;stroke-dasharray:none;stroke-opacity:1" />
          <path
             inkscape:connector-curvature="0"
             id="path4776"
             d="m -231.48982,56.195434 a 1.6176424,1.6176424 0 0 0 -1.61738,1.617923 1.6176424,1.6176424 0 0 0 1.61738,1.61739 1.6176424,1.6176424 0 0 0 1.61793,-1.61739 1.6176424,1.6176424 0 0 0 -1.61793,-1.617923 z m 0,0.792145 a 0.82566634,0.82566634 0 0 1 0.82578,0.825778 0.82566634,0.82566634 0 0 1 -0.82578,0.825775 0.82566634,0.82566634 0 0 1 -0.82577,-0.825775 0.82566634,0.82566634 0 0 1 0.82577,-0.825778 z"
             style="opacity:0.98000004;fill:#ff0000;fill-opacity:1;stroke:none;stroke-width:0.00874035;stroke-miterlimit:4;stroke-dasharray:none;stroke-opacity:1" />
          <path
             inkscape:connector-curvature="0"
             style="opacity:0.98000004;fill:#ff0000;fill-opacity:1;stroke:none;stroke-width:0.00874035;stroke-miterlimit:4;stroke-dasharray:none;stroke-opacity:1"
             d="m -226.10748,56.195434 a 1.6176424,1.6176424 0 0 0 -1.61739,1.617922 1.6176424,1.6176424 0 0 0 1.61739,1.617391 1.6176424,1.6176424 0 0 0 1.61793,-1.617391 1.6176424,1.6176424 0 0 0 -1.61793,-1.617922 z m 0,0.792145 a 0.82566634,0.82566634 0 0 1 0.82578,0.825777 0.82566634,0.82566634 0 0 1 -0.82578,0.825776 0.82566634,0.82566634 0 0 1 -0.82577,-0.825776 0.82566634,0.82566634 0 0 1 0.82577,-0.825777 z"
             id="path4783" />
          <path
             sodipodi:nodetypes="ccccccccccccccccc"
             inkscape:connector-curvature="0"
             id="path4795"
             d="m -228.08668,58.883219 7.1e-4,0.547402 h -0.79836 c -0.26153,0.0035 -0.36951,-0.296922 -0.36636,-0.491829 l 3e-5,-1.75202 -0.50552,1e-6 0.008,-0.53701 0.49711,-2e-6 -3e-5,-0.715167 h 0.67996 l 3e-5,0.715167 h 0.55523 l 0.004,0.52757 -0.55934,0.0094 v 1.467919 c -0.006,0.146061 0.0954,0.229298 0.1923,0.228528 z"
             style="fill:#ff0000;fill-opacity:1;stroke:none;stroke-width:0.005;stroke-linecap:butt;stroke-linejoin:miter;stroke-miterlimit:4;stroke-dasharray:none;stroke-opacity:1" />
        </g>
        <g
           id="g4858"
           style="fill:#ff0000;fill-opacity:1"
           transform="translate(-5.5835004,21.093224)">
          <path
             style="fill:#ff0000;fill-opacity:1;stroke:none;stroke-width:0.05;stroke-linecap:butt;stroke-linejoin:miter;stroke-miterlimit:4;stroke-dasharray:none;stroke-opacity:1"
             d="m -256.75489,55.024445 0.003,12.585716 c 0.0217,8.549227 15.02233,7.686617 15.02233,0.888643 V 55.094806 h -3.19237 l -0.14073,12.360149 c 0,4.767642 -8.04862,4.454124 -8.04862,-0.151728 l 0.0919,-12.208425 z"
             id="path4846"
             inkscape:connector-curvature="0"
             sodipodi:nodetypes="ccccccccc" />
          <path
             style="fill:#ff0000;fill-opacity:1;stroke:none;stroke-width:0.05;stroke-linecap:butt;stroke-linejoin:miter;stroke-miterlimit:4;stroke-dasharray:none;stroke-opacity:1"
             d="m -236.97984,60.400688 -0.1723,13.129012 h 3.19788 l 0.0962,-8.690472 c 0.63382,-1.442209 4.05321,-4.421161 5.74957,-0.287172 l -0.14358,9.048004 h 3.65597 V 63.256821 c 0,-0.996383 -0.74361,-2.080279 -2.50564,-2.808262 -4.21367,-1.046859 -5.1864,0.41025 -6.82381,1.874899 l -0.0287,-1.97014 z"
             id="path4848"
             inkscape:connector-curvature="0"
             sodipodi:nodetypes="cccccccscccc" />
          <path
             style="fill:#ff0000;fill-opacity:1;stroke:none;stroke-width:0.05;stroke-linecap:butt;stroke-linejoin:miter;stroke-miterlimit:4;stroke-dasharray:none;stroke-opacity:1"
             d="m -220.58545,60.301607 v 13.509541 h 3.38299 V 60.301607 Z"
             id="path4850"
             inkscape:connector-curvature="0"
             sodipodi:nodetypes="ccccc" />
          <path
             style="fill:#ff0000;fill-opacity:1;stroke:none;stroke-width:0.11338583;stroke-linecap:butt;stroke-linejoin:miter;stroke-miterlimit:4;stroke-dasharray:none;stroke-opacity:1"
             d="m -784.9375,227.71875 c -10.38009,0.0303 -21.08377,4.53548 -22.17773,13.49023 l 10.98437,1.41016 c 1.08053,-1.79032 1.939,-2.85882 3.01953,-3.82031 3.35327,-4.09043 22.14137,-2.64553 15.42969,8.875 -57.98938,0.62455 -24.36217,50.67181 -0.23242,26.49609 0.5687,-0.52011 1.88268,-1.27988 2.62109,-0.90234 0.80035,1.2788 0.80014,3.84615 1.06055,5.88086 l 12.43554,-0.0566 -2.90234,-6.50391 v -31.51172 c 0.19756,-8.94314 -9.85819,-13.38776 -20.23828,-13.35742 z m 8.04297,27.04492 c 2.71041,17.22255 -13.21767,21.14577 -18.83008,12.6875 -4.90363,-9.34951 8.95157,-11.02067 18.83008,-12.6875 z"
             id="path4852"
             inkscape:connector-curvature="0"
             sodipodi:nodetypes="cccccccccccscccc"
             transform="scale(0.26458333)" />
          <path
             style="fill:#ff0000;fill-opacity:1;stroke:none;stroke-width:0.05;stroke-linecap:butt;stroke-linejoin:miter;stroke-miterlimit:4;stroke-dasharray:none;stroke-opacity:1"
             d="m -210.0526,58.587941 -0.0587,1.444993 c 2.1457,-2.229813 3.34943,1.437301 5.59201,-0.751867 l -0.10574,-1.597714 c -1.64032,2.507541 -3.45583,-1.399579 -5.42749,0.904588 z"
             id="path4856"
             inkscape:connector-curvature="0"
             sodipodi:nodetypes="cccccc" />
        </g>
        <g
           id="g4906"
           style="fill:#ff0000">
          <path
             sodipodi:nodetypes="ccccc"
             inkscape:connector-curvature="0"
             id="path4864"
             d="m -218.63047,77.843769 1.42906,-0.252185 c 0.29222,0.595127 0.9264,1.910171 1.0234,3.927881 l -1.22093,0.649278 c -0.10484,-1.189593 -0.11326,-2.498374 -1.23153,-4.324974 z"
             style="fill:#ff0000;fill-opacity:1;stroke:none;stroke-width:0.055;stroke-linecap:butt;stroke-linejoin:miter;stroke-miterlimit:4;stroke-dasharray:none;stroke-opacity:1" />
          <g
             id="g4895"
             style="fill:#ff0000">
            <g
               id="g4844"
               style="fill:#ff0000;fill-opacity:1"
               transform="translate(-5.5835004,21.093224)">
              <path
                 sodipodi:nodetypes="cscscsc"
                 inkscape:connector-curvature="0"
                 id="path1003"
                 d="m -209.62764,51.608022 c 0.056,-0.0024 0.21688,-0.10974 0.39006,-0.135153 5.71838,-0.83914 8.66974,0.945017 11.57107,3.991843 2.77026,2.004614 9.56562,1.667044 13.35591,2.141784 0.29349,0.03676 0.33235,0.259503 0.44939,0.364359 -1.29802,-0.328504 -11.27534,0.338096 -13.80187,-1.902942 -4.26299,-3.781283 -6.15372,-4.493089 -11.96456,-4.459891 z"
                 style="fill:#ff0000;fill-opacity:1;stroke:none;stroke-width:0.03;stroke-linecap:butt;stroke-linejoin:miter;stroke-miterlimit:4;stroke-dasharray:none;stroke-opacity:1" />
              <path
                 sodipodi:nodetypes="cccccc"
                 inkscape:connector-curvature="0"
                 id="path1021"
                 d="m -186.44655,59.223289 c -1.68878,0.568118 -9.03503,-0.62745 -10.30806,-1.108391 l 4.21305,9.457507 c 0.26958,0.227433 0.5339,0.06842 0.58519,-0.1354 l -3.92417,-8.50048 c 2.11163,0.437573 7.8121,1.622431 9.43399,0.286764 z"
                 style="fill:#ff0000;fill-opacity:1;stroke:none;stroke-width:0.055;stroke-linecap:butt;stroke-linejoin:miter;stroke-miterlimit:4;stroke-dasharray:none;stroke-opacity:1" />
              <path
                 sodipodi:nodetypes="ccc"
                 inkscape:connector-curvature="0"
                 id="path1023"
                 d="m -211.5474,52.664104 c 0.0544,-1.683279 5.15347,-3.660541 6.26583,-2.975066 -1.32552,0.485538 -4.64912,1.85708 -6.26583,2.975066 z"
                 style="fill:#ff0000;fill-opacity:1;stroke:none;stroke-width:0.005;stroke-linecap:butt;stroke-linejoin:miter;stroke-miterlimit:4;stroke-dasharray:none;stroke-opacity:1" />
              <g
                 id="g4817"
                 style="fill:#ff0000;fill-opacity:1">
                <path
                   style="fill:#ff0000;fill-opacity:1;stroke:none;stroke-width:0.05;stroke-linecap:butt;stroke-linejoin:miter;stroke-miterlimit:4;stroke-dasharray:none;stroke-opacity:1"
                   d="m -214.81393,54.884139 0.92943,-0.929425 c -8.57224,-6.228826 -14.09116,4.699856 -6.94156,10.107522 l -10e-4,-0.660788 c -7.32579,-6.949145 1.31367,-13.676014 6.01354,-8.517309 z"
                   id="path4745"
                   inkscape:connector-curvature="0"
                   sodipodi:nodetypes="cccccc" />
              </g>
            </g>
            <path
               style="fill:#ff0000;fill-opacity:1;stroke:none;stroke-width:0.055;stroke-linecap:butt;stroke-linejoin:miter;stroke-miterlimit:4;stroke-dasharray:none;stroke-opacity:1"
               d="m -222.64863,86.350853 0.0168,0.453932 c 1.44879,0.206426 3.9818,0.08591 5.19447,-1.472947 l -1.42636,-0.190955 c -1.03337,1.259326 -2.71594,1.479441 -3.78491,1.20997 z"
               id="path4866"
               inkscape:connector-curvature="0"
               sodipodi:nodetypes="ccccc" />
          </g>
        </g>
        <path
           style="opacity:0.98000004;fill:#ff0000;fill-opacity:1;stroke:none;stroke-width:0.05;stroke-miterlimit:4;stroke-dasharray:none;stroke-opacity:1"
           d="m -197.14605,81.416673 c -1.08704,0.0028 -2.0734,0.250059 -3.04579,0.722436 l 1.08426,2.39243 c 0.596,-0.383334 1.36079,-0.491392 2.0499,-0.49332 2.16924,-2.37e-4 3.92788,1.948359 3.92792,4.352188 -4e-5,2.40383 -1.75868,4.352427 -3.92792,4.35219 -2.16904,-7.5e-5 -3.92737,-1.948581 -3.92741,-4.35219 0.002,-0.656969 0.13752,-1.304995 0.39739,-1.895491 l -2.24741,-2.255676 c -0.87887,1.16919 -1.35395,2.579067 -1.35702,4.027144 -4e-5,3.782963 3.1546,6.849687 7.04608,6.849711 3.89148,-2.4e-5 7.04612,-3.066748 7.04608,-6.849711 4e-5,-3.782963 -3.1546,-6.849687 -7.04608,-6.849711 z"
           id="path950"
           inkscape:connector-curvature="0"
           sodipodi:nodetypes="ccccccccccccc" />
      </g>
    </g>
  </g>
</svg>
